# xmcd CD database file
#
# Track frame offsets:
#	150
#	26529
#	39915
#	72317
#	84994
#	108027
#	132220
#	165302
#	198043
#	223560
#
# Disc length: 3333 seconds
#
# Revision: 0
# Processed by: cddbd v1.5.1PL2 Copyright (c) Steve Scherf et al.
# Submitted via: CDex 1.51
#
DISCID=720d030a
DTITLE=Keith Jarrett - The Melody at Night, With You
DYEAR=1999
DGENRE=Jazz
TTITLE0=I Loves You, Porgy 
TTITLE1=I Got It Bad (And That Ain't Good) 
TTITLE2=Don't Ever Leave Me 
TTITLE3=Someone to Watch over Me
TTITLE4=My Wild Irish Rose 
TTITLE5=Blame It on My Youth/Meditation 
TTITLE6=Something to Remember You By 
TTITLE7=Be My Love 
TTITLE8=Shenandoah 
TTITLE9=I'm Through With Love 
EXTD=YEAR: 1999
EXTT0=
EXTT1=
EXTT2=
EXTT3=
EXTT4=
EXTT5=
EXTT6=
EXTT7=
EXTT8=
EXTT9=
PLAYORDER=
